<svg
  version="1.1"
  id="Layer_1"
  xmlns="http://www.w3.org/2000/svg"
  xmlns:xlink="http://www.w3.org/1999/xlink"
  viewBox="0 0 300 300"
  xml:space="preserve"
  fill="#000000"
>
  <g id="SVGRepo_bgCarrier" stroke-width="0"></g>
  <g
    id="SVGRepo_tracerCarrier"
    stroke-linecap="round"
    stroke-linejoin="round"
  ></g>
  <g id="SVGRepo_iconCarrier">
    <g id="XMLID_806_">
      <path
        id="XMLID_807_"
        style="fill:#25D366;"
        d="M148.437,0.001c-81.945,0-148.438,66.491-148.438,148.437 c0,32.863,10.387,63.452,29.997,89.362l-19.787,58.572l60.231-19.82c24.301,16.705,52.449,25.539,81.999,25.539h0.001 c81.947,0,148.438-66.493,148.438-148.437C296.875,66.491,230.384,0.001,148.437,0.001z"
      ></path>
      <path
        id="XMLID_808_"
        style="fill:#FFFFFF;"
        d="M224.29,176.566c-3.356-1.679-19.847-9.785-22.91-10.91 c-3.062-1.127-5.292-1.693-7.521,1.691c-2.227,3.378-8.643,10.91-10.592,13.188c-1.949,2.276-3.897,2.556-7.252,0.877 c-3.356-1.691-14.164-5.229-26.999-16.68c-9.981-8.889-16.711-19.861-18.671-23.142c-1.949-3.378-0.211-5.206,1.465-6.885 c1.504-1.488,3.356-3.885,5.032-5.837c1.679-1.952,2.227-3.378,3.354-5.604c1.127-2.276,0.564-4.226-0.283-5.837 c-0.877-1.691-7.521-18.202-10.345-25.031c-2.726-6.495-5.491-5.625-7.521-5.703c-1.949-0.08-4.226-0.096-6.476-0.096 c-2.227,0-5.837,0.876-8.896,4.226c-3.062,3.378-11.659,11.406-11.659,27.816c0,16.411,11.929,32.301,13.597,34.579 c1.693,2.276,23.445,35.838,56.881,50.167c7.933,3.418,14.134,5.461,18.962,6.994c7.961,2.527,15.211,2.171,20.948,1.319 c6.396-0.949,19.847-8.105,22.665-15.926c2.804-7.825,2.804-14.553,1.949-15.926C230.742,178.423,227.646,178.246,224.29,176.566z"
      ></path>
    </g>
  </g>
</svg>
